<svg xmlns="http://www.w3.org/2000/svg" width="512" height="512" viewBox="0 0 512 512" version="1.1"><path d="M 164.462 2.366 C 157.950 5.398, 151.441 12.774, 149.495 19.328 C 148.407 22.991, 148 29.322, 148 42.560 L 148 60.757 144.946 62.023 C 141.024 63.647, 135.830 69.152, 134.326 73.279 C 133.680 75.050, 133.118 79.763, 133.076 83.750 L 133 91 75.468 91 C 12.056 91, 13.953 90.825, 7.128 97.301 C 5.273 99.060, 2.921 102.300, 1.900 104.500 C 0.140 108.294, 0.044 112.725, 0.044 190.500 C 0.044 267.695, 0.151 272.734, 1.866 276.500 C 3.818 280.787, 10.431 287.367, 13.889 288.465 C 15.999 289.134, 16 289.159, 16 338.067 C 16 385.667, 16.054 387.054, 18 389 C 21.064 392.064, 25.270 391.961, 28.750 388.736 L 31 386.651 31 339.326 C 31 313.297, 31.337 292.002, 31.750 292.004 C 32.163 292.006, 44.650 294.006, 59.500 296.448 C 74.350 298.890, 111.700 304.966, 142.500 309.951 C 173.300 314.936, 199.513 319.245, 200.750 319.526 C 202.750 319.981, 203 320.652, 203 325.559 C 203 334.678, 207.509 341.152, 214.889 342.628 L 217.770 343.204 218.176 352.487 C 218.524 360.432, 218.960 362.341, 221.202 365.729 C 226.035 373.032, 228.129 373.500, 256 373.500 C 283.871 373.500, 285.965 373.032, 290.798 365.729 C 293.040 362.341, 293.476 360.432, 293.824 352.487 L 294.230 343.204 297.111 342.628 C 304.425 341.165, 308.170 335.933, 308.975 326.051 L 309.500 319.602 354.500 312.310 C 448.741 297.037, 479.986 292, 480.484 292 C 480.768 292, 481 313.297, 481 339.326 L 481 386.651 483.314 388.826 C 486.260 391.593, 491.324 391.676, 494 389 C 495.946 387.054, 496 385.667, 496 338.067 C 496 289.159, 496.001 289.134, 498.111 288.465 C 501.769 287.304, 508.097 280.788, 510.595 275.610 L 513 270.626 513 188.754 C 513 140.945, 512.628 107.112, 512.107 107.434 C 511.615 107.738, 510.957 106.965, 510.644 105.716 C 509.729 102.073, 502.958 94.886, 498.556 92.886 C 494.939 91.243, 491.560 91.042, 467.323 91.022 L 440.145 91 438.084 93.621 C 435.563 96.825, 436.138 100.528, 439.655 103.750 C 442.063 105.955, 442.598 106, 466.633 106 L 491.154 106 494.077 108.923 L 497 111.846 497 190.201 C 497 259.382, 496.818 268.814, 495.449 270.770 C 492.529 274.939, 503.332 272.895, 370.502 294.408 L 306.505 304.772 303.327 301.982 C 301.579 300.447, 298.765 298.888, 297.074 298.516 L 294 297.841 293.978 290.171 C 293.946 278.999, 290.143 271.892, 282.685 269.067 C 278.909 267.636, 233.091 267.636, 229.315 269.067 C 221.857 271.892, 218.054 278.999, 218.022 290.171 L 218 297.841 214.926 298.516 C 213.235 298.888, 210.372 300.491, 208.563 302.079 L 205.275 304.966 153.887 296.559 C 125.624 291.935, 84.275 285.189, 62 281.568 C 39.725 277.947, 20.537 274.488, 19.360 273.882 C 18.184 273.276, 16.721 271.684, 16.110 270.343 C 15.327 268.623, 15 244.941, 15 189.876 L 15 111.846 17.923 108.923 L 20.846 106 215.376 106 C 359.586 106, 410.557 105.703, 412.424 104.853 C 413.907 104.177, 415.412 102.282, 416.085 100.243 C 417.072 97.253, 416.959 96.421, 415.257 94.141 L 413.287 91.500 396.143 91.226 L 379 90.953 378.978 83.726 C 378.945 72.994, 374.617 65.155, 366.974 61.989 L 364 60.757 364 42.560 C 364 29.322, 363.593 22.991, 362.505 19.328 C 360.559 12.774, 354.050 5.398, 347.538 2.366 L 342.500 0.020 256 0.020 L 169.500 0.020 164.462 2.366 M 169.310 17.077 C 163.909 20.536, 162.892 25.031, 163.217 44 L 163.500 60.500 171.250 60.792 L 179 61.084 179 48.153 C 179 36.911, 179.250 34.913, 180.912 32.861 L 182.823 30.500 256 30.500 L 329.177 30.500 331.088 32.861 C 332.750 34.913, 333 36.911, 333 48.153 L 333 61.084 340.750 60.792 L 348.500 60.500 348.783 44 C 349.110 24.871, 348.092 20.456, 342.564 17.040 C 339.311 15.029, 338.077 15, 255.882 15.017 C 173.629 15.033, 172.457 15.061, 169.310 17.077 M 194 53.301 L 194 60.601 198.466 62.771 C 201.236 64.117, 203.990 66.538, 205.716 69.145 C 208.129 72.789, 208.547 74.524, 208.849 82.175 L 209.199 91 256 91 L 302.801 91 303.151 82.175 C 303.453 74.524, 303.871 72.789, 306.284 69.145 C 308.010 66.538, 310.764 64.117, 313.534 62.771 L 318 60.601 318 53.301 L 318 46 256 46 L 194 46 194 53.301 M 150 77 C 148.444 78.556, 148 80.333, 148 85 L 148 91 171 91 L 194 91 194 84.557 C 194 75.056, 193.865 75, 170.777 75 C 153.333 75, 151.858 75.142, 150 77 M 320.250 76.515 C 318.315 77.890, 318 79.015, 318 84.557 L 318 91 341 91 L 364 91 364 85.191 C 364 75.415, 364.295 75.547, 341.832 75.208 C 325.403 74.960, 322.162 75.156, 320.250 76.515 M 0.477 190.500 C 0.477 236.150, 0.600 254.971, 0.750 232.325 C 0.899 209.678, 0.900 172.328, 0.750 149.325 C 0.600 126.321, 0.477 144.850, 0.477 190.500 M 233.685 283.648 C 233.308 284.025, 233 287.408, 233 291.167 L 233 298 256.044 298 L 279.088 298 278.794 290.750 L 278.500 283.500 256.435 283.231 C 244.300 283.084, 234.062 283.271, 233.685 283.648 M 218 320.500 L 218 328 256 328 L 294 328 294 320.500 L 294 313 256 313 L 218 313 218 320.500 M 233 349.800 C 233 353.756, 233.502 357.102, 234.200 357.800 C 235.897 359.497, 276.103 359.497, 277.800 357.800 C 278.498 357.102, 279 353.756, 279 349.800 L 279 343 256 343 L 233 343 233 349.800 M 18.174 413.314 C 16.018 415.609, 16 415.958, 16.010 454.564 C 16.019 493.312, 16.031 493.524, 18.367 498.541 C 20.926 504.036, 25.276 508.253, 30.743 510.537 C 36.033 512.748, 475.967 512.748, 481.257 510.537 C 486.724 508.253, 491.074 504.036, 493.633 498.541 C 495.970 493.523, 495.981 493.324, 495.990 454.323 L 496 415.145 493.365 413.073 C 490.081 410.489, 486.920 410.435, 483.861 412.910 L 481.500 414.821 481 453.498 L 480.500 492.176 477.694 494.588 L 474.888 497 256 497 L 37.112 497 34.306 494.588 L 31.500 492.176 31 453.498 L 30.500 414.821 28.139 412.910 C 24.942 410.323, 20.828 410.490, 18.174 413.314 M 57.368 437.067 C 55.646 437.578, 52.646 439.757, 50.701 441.909 C 46.632 446.413, 45.407 452.468, 46.232 464.002 C 46.843 472.533, 49.464 477.078, 55.441 479.972 C 59.700 482.033, 60.808 482.078, 100.832 481.792 C 140.655 481.509, 141.939 481.439, 144.678 479.408 C 150.949 474.759, 152 471.831, 152 459 C 152 446.169, 150.949 443.241, 144.678 438.592 C 141.934 436.557, 140.740 436.495, 101.178 436.319 C 78.439 436.218, 59.119 436.547, 57.368 437.067 M 61.422 452.343 C 61.133 453.095, 61.033 456.588, 61.199 460.105 L 61.500 466.500 99.500 466.500 L 137.500 466.500 137.500 459 L 137.500 451.500 99.723 451.238 C 68.516 451.021, 61.855 451.214, 61.422 452.343" stroke="none" fill="#040404" fill-rule="evenodd"/><path d="M 169.310 17.077 C 163.909 20.536, 162.892 25.031, 163.217 44 L 163.500 60.500 171.250 60.792 L 179 61.084 179 48.153 C 179 36.911, 179.250 34.913, 180.912 32.861 L 182.823 30.500 256 30.500 L 329.177 30.500 331.088 32.861 C 332.750 34.913, 333 36.911, 333 48.153 L 333 61.084 340.750 60.792 L 348.500 60.500 348.783 44 C 349.110 24.871, 348.092 20.456, 342.564 17.040 C 339.311 15.029, 338.077 15, 255.882 15.017 C 173.629 15.033, 172.457 15.061, 169.310 17.077 M 150 77 C 148.444 78.556, 148 80.333, 148 85 L 148 91 171 91 L 194 91 194 84.557 C 194 75.056, 193.865 75, 170.777 75 C 153.333 75, 151.858 75.142, 150 77 M 320.250 76.515 C 318.315 77.890, 318 79.015, 318 84.557 L 318 91 341 91 L 364 91 364 85.191 C 364 75.415, 364.295 75.547, 341.832 75.208 C 325.403 74.960, 322.162 75.156, 320.250 76.515 M 415.898 100.862 C 415.349 102.436, 413.777 104.236, 412.403 104.862 C 410.564 105.700, 358.643 106, 215.376 106 L 20.846 106 17.923 108.923 L 15 111.846 15 189.876 C 15 244.941, 15.327 268.623, 16.110 270.343 C 16.721 271.684, 18.184 273.276, 19.360 273.882 C 20.537 274.488, 39.725 277.947, 62 281.568 C 84.275 285.189, 125.624 291.935, 153.887 296.559 L 205.275 304.966 208.563 302.079 C 210.372 300.491, 213.235 298.888, 214.926 298.516 L 218 297.841 218.022 290.171 C 218.054 278.999, 221.857 271.892, 229.315 269.067 C 233.091 267.636, 278.909 267.636, 282.685 269.067 C 290.143 271.892, 293.946 278.999, 293.978 290.171 L 294 297.841 297.074 298.516 C 298.765 298.888, 301.579 300.447, 303.327 301.982 L 306.505 304.772 370.502 294.408 C 476.472 277.245, 490.280 274.920, 492.127 273.932 C 497.182 271.227, 497 274.354, 497 190.201 L 497 111.846 494.077 108.923 L 491.154 106 466.712 106 C 443.499 106, 442.137 105.896, 439.635 103.927 C 438.186 102.788, 437 100.988, 437 99.927 C 437 98.152, 436.207 98, 426.948 98 L 416.896 98 415.898 100.862 M 233.685 283.648 C 233.308 284.025, 233 287.408, 233 291.167 L 233 298 256.044 298 L 279.088 298 278.794 290.750 L 278.500 283.500 256.435 283.231 C 244.300 283.084, 234.062 283.271, 233.685 283.648 M 31 339.326 L 31 386.651 28.686 388.826 C 27.413 390.022, 25.613 391, 24.686 391 C 23.217 391, 23 392.289, 23 401 C 23 408.868, 23.296 411, 24.389 411 C 25.153 411, 26.841 411.860, 28.139 412.910 L 30.500 414.821 31 453.498 L 31.500 492.176 34.306 494.588 L 37.112 497 256 497 L 474.888 497 477.694 494.588 L 480.500 492.176 481 453.498 L 481.500 414.821 483.861 412.910 C 485.159 411.860, 486.847 411, 487.611 411 C 488.704 411, 489 408.868, 489 401 C 489 391.985, 488.820 391, 487.174 391 C 486.170 391, 484.370 389.958, 483.174 388.686 C 481.005 386.377, 481 386.256, 481 339.186 C 481 313.233, 480.768 292, 480.484 292 C 479.986 292, 448.741 297.037, 354.500 312.310 L 309.500 319.602 308.975 326.051 C 308.170 335.933, 304.425 341.165, 297.111 342.628 L 294.230 343.204 293.824 352.487 C 293.476 360.432, 293.040 362.341, 290.798 365.729 C 285.965 373.032, 283.871 373.500, 256 373.500 C 228.129 373.500, 226.035 373.032, 221.202 365.729 C 218.960 362.341, 218.524 360.432, 218.176 352.487 L 217.770 343.204 214.889 342.628 C 207.509 341.152, 203 334.678, 203 325.559 C 203 320.652, 202.750 319.981, 200.750 319.526 C 199.512 319.245, 173.300 314.936, 142.500 309.951 C 111.700 304.966, 74.350 298.890, 59.500 296.448 C 44.650 294.006, 32.163 292.006, 31.750 292.004 C 31.337 292.002, 31 313.297, 31 339.326 M 218 320.500 L 218 328 256 328 L 294 328 294 320.500 L 294 313 256 313 L 218 313 218 320.500 M 233 349.800 C 233 353.756, 233.502 357.102, 234.200 357.800 C 235.897 359.497, 276.103 359.497, 277.800 357.800 C 278.498 357.102, 279 353.756, 279 349.800 L 279 343 256 343 L 233 343 233 349.800 M 57.368 437.067 C 55.646 437.578, 52.646 439.757, 50.701 441.909 C 46.632 446.413, 45.407 452.468, 46.232 464.002 C 46.843 472.533, 49.464 477.078, 55.441 479.972 C 59.700 482.033, 60.808 482.078, 100.832 481.792 C 140.655 481.509, 141.939 481.439, 144.678 479.408 C 150.949 474.759, 152 471.831, 152 459 C 152 446.169, 150.949 443.241, 144.678 438.592 C 141.934 436.557, 140.740 436.495, 101.178 436.319 C 78.439 436.218, 59.119 436.547, 57.368 437.067 M 61.422 452.343 C 61.133 453.095, 61.033 456.588, 61.199 460.105 L 61.500 466.500 99.500 466.500 L 137.500 466.500 137.500 459 L 137.500 451.500 99.723 451.238 C 68.516 451.021, 61.855 451.214, 61.422 452.343" stroke="none" fill="#498fd2" fill-rule="evenodd"/></svg>